<svg width="12" height="12" viewBox="0 0 12 12" fill="none" xmlns="http://www.w3.org/2000/svg">
<path d="M11 0C11.5128 0 11.9355 0.38604 11.9933 0.883379L12 1V7C12 7.55228 11.5523 8 11 8C10.4872 8 10.0645 7.61396 10.0067 7.11662L10 7V3.414L1.70711 11.7071C1.31658 12.0976 0.683418 12.0976 0.292893 11.7071C-0.0675907 11.3466 -0.0953203 10.7794 0.209705 10.3871L0.292893 10.2929L8.584 2H5C4.48716 2 4.06449 1.61396 4.00673 1.11662L4 1C4 0.487164 4.38604 0.0644928 4.88338 0.00672773L5 0H11Z" fill="#747474"/>
</svg>
