<svg width="16" height="16" viewBox="0 0 16 16" fill="none" xmlns="http://www.w3.org/2000/svg">
<path fill-rule="evenodd" clip-rule="evenodd" d="M8.70711 2.29289C8.31658 1.90237 7.68342 1.90237 7.29289 2.29289L4.29289 5.29289C3.90237 5.68342 3.90237 6.31658 4.29289 6.70711C4.68342 7.09763 5.31658 7.09763 5.70711 6.70711L8 4.41421L10.2929 6.70711C10.6834 7.09763 11.3166 7.09763 11.7071 6.70711C12.0976 6.31658 12.0976 5.68342 11.7071 5.29289L8.70711 2.29289ZM7.266 13.7903C7.6418 14.195 8.27453 14.2184 8.67924 13.8426L11.7891 10.955C12.1938 10.5792 12.2172 9.94643 11.8414 9.54171C11.4656 9.137 10.8329 9.11356 10.4282 9.48936L8.05114 11.6966L5.84391 9.31955C5.46811 8.91483 4.83538 8.89139 4.43066 9.26719C4.02595 9.64299 4.00251 10.2757 4.37831 10.6804L7.266 13.7903Z" fill="#747474"/>
</svg>
