<svg width="16" height="16" viewBox="0 0 16 16" fill="none" xmlns="http://www.w3.org/2000/svg">
<path d="M5.5 9.5C6.32843 9.5 7 8.82843 7 8C7 7.17157 6.32843 6.5 5.5 6.5C4.67157 6.5 4 7.17157 4 8C4 8.82843 4.67157 9.5 5.5 9.5Z" fill="black"/>
<path d="M12 8C12 8.82843 11.3284 9.5 10.5 9.5C9.67157 9.5 9 8.82843 9 8C9 7.17157 9.67157 6.5 10.5 6.5C11.3284 6.5 12 7.17157 12 8Z" fill="black"/>
<path d="M6 11.5C5.44772 11.5 5 11.9477 5 12.5C5 13.0523 5.44772 13.5 6 13.5H10C10.5523 13.5 11 13.0523 11 12.5C11 11.9477 10.5523 11.5 10 11.5H6Z" fill="black"/>
<path fill-rule="evenodd" clip-rule="evenodd" d="M9.5 1.5C9.5 2.15311 9.0826 2.70873 8.5 2.91465V4H12C13.1046 4 14 4.89543 14 6V7.5H15C15.5523 7.5 16 7.94772 16 8.5V11.5C16 12.0523 15.5523 12.5 15 12.5H14V14C14 15.1046 13.1046 16 12 16H4C2.89543 16 2 15.1046 2 14V12.5H1C0.447715 12.5 0 12.0523 0 11.5V8.5C0 7.94772 0.447715 7.5 1 7.5H2V6C2 4.89543 2.89543 4 4 4H7.5V2.91465C6.9174 2.70873 6.5 2.15311 6.5 1.5C6.5 0.671573 7.17157 0 8 0C8.82843 0 9.5 0.671573 9.5 1.5ZM14 11.5V8.5H15V11.5H14ZM2 8.5V11.5H1V8.5H2ZM4 5H12C12.5523 5 13 5.44772 13 6V14C13 14.5523 12.5523 15 12 15H4C3.44772 15 3 14.5523 3 14V6C3 5.44772 3.44772 5 4 5Z" fill="black"/>
<path fill-rule="evenodd" clip-rule="evenodd" d="M13 6C13 5.44772 12.5523 5 12 5H4C3.44772 5 3 5.44772 3 6V14C3 14.5523 3.44772 15 4 15H12C12.5523 15 13 14.5523 13 14V6ZM5.5 9.5C6.32843 9.5 7 8.82843 7 8C7 7.17157 6.32843 6.5 5.5 6.5C4.67157 6.5 4 7.17157 4 8C4 8.82843 4.67157 9.5 5.5 9.5ZM12 8C12 8.82843 11.3284 9.5 10.5 9.5C9.67157 9.5 9 8.82843 9 8C9 7.17157 9.67157 6.5 10.5 6.5C11.3284 6.5 12 7.17157 12 8ZM6 11.5C5.44772 11.5 5 11.9477 5 12.5C5 13.0523 5.44772 13.5 6 13.5H10C10.5523 13.5 11 13.0523 11 12.5C11 11.9477 10.5523 11.5 10 11.5H6Z" fill="white"/>
<path d="M14 8.5V11.5H15V8.5H14Z" fill="white"/>
<path d="M2 11.5V8.5H1V11.5H2Z" fill="white"/>
</svg>
