<svg width="16" height="16" viewBox="0 0 16 16" fill="none" xmlns="http://www.w3.org/2000/svg">
<path d="M9 14.5C9 14.7761 9.22386 15 9.5 15H10.2305C12.4453 15 13.1836 14.294 13.1836 12.1831V10.6369C13.1836 9.65221 13.4797 9.28984 14.5021 9.21308C14.7774 9.1924 15.002 8.97281 15.002 8.69667V7.31039C15.002 7.03425 14.7774 6.81466 14.5021 6.79398C13.4797 6.71722 13.1836 6.35485 13.1836 5.37015V3.81694C13.1836 1.706 12.4453 1 10.2305 1H9.5C9.22386 1 9 1.22386 9 1.5V2.4062C9 2.68235 9.22386 2.9062 9.5 2.9062H9.58789C10.5107 2.9062 10.6953 3.13212 10.6953 4.25466V6.27383C10.6953 7.22693 11.3379 7.83409 12.4521 7.93293V8.07413C11.3379 8.17297 10.6953 8.78013 10.6953 9.73323V11.7453C10.6953 12.8679 10.5107 13.0938 9.58789 13.0938H9.5C9.22386 13.0938 9 13.3177 9 13.5938V14.5Z" fill="#FFFFFF"/>
<path d="M7.00195 14.5C7.00195 14.7761 6.7781 15 6.50195 15H5.77148C3.55664 15 2.81836 14.294 2.81836 12.1831V10.6369C2.81836 9.65221 2.52226 9.28984 1.49987 9.21308C1.22451 9.1924 1 8.97281 1 8.69667V7.31039C1 7.03425 1.22451 6.81466 1.49987 6.79398C2.52226 6.71722 2.81836 6.35485 2.81836 5.37015V3.81694C2.81836 1.706 3.55664 1 5.77148 1H6.50195C6.7781 1 7.00195 1.22386 7.00195 1.5V2.4062C7.00195 2.68235 6.7781 2.9062 6.50195 2.9062H6.41406C5.49121 2.9062 5.30664 3.13212 5.30664 4.25466V6.27383C5.30664 7.22693 4.66406 7.83409 3.5498 7.93293V8.07413C4.66406 8.17297 5.30664 8.78013 5.30664 9.73323V11.7453C5.30664 12.8679 5.49121 13.0938 6.41406 13.0938H6.50195C6.7781 13.0938 7.00195 13.3177 7.00195 13.5938V14.5Z" fill="#FFFFFF"/>
</svg>
