<svg width="16" height="16" viewBox="0 0 16 16" fill="none" xmlns="http://www.w3.org/2000/svg">
<path fill-rule="evenodd" clip-rule="evenodd" d="M0 1C0 0.447715 0.447715 0 1 0H15C15.5523 0 16 0.447715 16 1V11C16 11.5523 15.5523 12 15 12H11.5L8.8 15.6C8.61115 15.8518 8.31476 16 8 16C7.68524 16 7.38885 15.8518 7.2 15.6L4.5 12H1C0.447715 12 0 11.5523 0 11V1ZM10.25 1.5C11.182 1.5 11.9375 2.25552 11.9375 3.1875C11.9375 4.11948 11.182 4.875 10.25 4.875C9.31802 4.875 8.5625 4.11948 8.5625 3.1875C8.5625 2.25552 9.31802 1.5 10.25 1.5ZM7.4375 5.4375C7.4375 4.50552 6.68198 3.75 5.75 3.75C4.81802 3.75 4.0625 4.50552 4.0625 5.4375C4.0625 6.36948 4.81802 7.125 5.75 7.125C6.68198 7.125 7.4375 6.36948 7.4375 5.4375ZM10.25 5.4375C11.4926 5.4375 12.5 6.44486 12.5 7.6875C12.5 7.97597 12.2829 8.21372 12.0031 8.24622L11.9375 8.25H8.5625C8.25184 8.25 8 7.99816 8 7.6875C8 6.44486 9.00736 5.4375 10.25 5.4375ZM5.75 7.6875C6.99264 7.6875 8 8.69486 8 9.9375C8 10.226 7.78285 10.4637 7.5031 10.4962L7.4375 10.5H4.0625C3.75184 10.5 3.5 10.2482 3.5 9.9375C3.5 8.69486 4.50736 7.6875 5.75 7.6875Z" fill="#DBDBDB"/>
</svg>