<svg width="24" height="24" viewBox="0 0 24 24" fill="none" xmlns="http://www.w3.org/2000/svg">
<path d="M17.2929 4.29289C17.6534 3.93241 18.2206 3.90468 18.6129 4.2097L18.7071 4.29289L19.7071 5.29289C20.0676 5.65338 20.0953 6.22061 19.7903 6.6129L19.7071 6.70711L18.7071 7.70711C18.3466 8.06759 17.7794 8.09532 17.3871 7.7903L17.2929 7.70711L16.2929 6.70711C15.9324 6.34662 15.9047 5.77939 16.2097 5.3871L16.2929 5.29289L17.2929 4.29289Z" fill="#747474"/>
<path d="M14.2929 7.29289C14.6534 6.93241 15.2206 6.90468 15.6129 7.2097L15.7071 7.29289L16.7071 8.29289C17.0676 8.65338 17.0953 9.22061 16.7903 9.6129L16.7071 9.70711L11.7071 15.7071C11.6564 15.7578 11.6005 15.8028 11.5404 15.8414L11.4472 15.8944L9.44722 16.8944C8.62072 17.3077 7.74586 16.4805 8.06186 15.6521L8.10557 15.5528L9.10557 13.5528C9.13762 13.4887 9.17641 13.4283 9.22123 13.3727L9.29289 13.2929L14.2929 7.29289Z" fill="#747474"/>
<path d="M7 6C5.89543 6 5 6.89543 5 8V18C5 19.1046 5.89543 20 7 20H17C18.1046 20 19 19.1046 19 18V11.6923C19 11.14 18.5523 10.6923 18 10.6923C17.4477 10.6923 17 11.14 17 11.6923V17C17 17.5523 16.5523 18 16 18H8C7.44772 18 7 17.5523 7 17V9C7 8.44772 7.44772 8 8 8L10.5 8C11.0523 8 11.5 7.55228 11.5 7C11.5 6.44772 11.0523 6 10.5 6H7Z" fill="#747474"/>
</svg>
