<svg width="16" height="16" viewBox="0 0 16 16" fill="none" xmlns="http://www.w3.org/2000/svg">
<path fill-rule="evenodd" clip-rule="evenodd" d="M15.0039 6.10765C16.4156 4.64165 16.2939 2.37321 14.8524 1.03535C13.402 -0.310867 10.9712 -0.380234 9.44598 1.03535L9.35674 1.12969L8.29937 2.40378L8.22526 2.50528C7.95785 2.92412 8.03796 3.48635 8.43026 3.81192L8.53177 3.88604C8.95061 4.15344 9.51283 4.07333 9.83841 3.68103L10.843 2.46993L10.9342 2.3936C11.6823 1.82112 12.83 1.88695 13.4919 2.50127C14.152 3.11394 14.1862 4.14604 13.4919 4.79045L13.413 4.87253L10.335 8.46483C9.52999 9.1875 8.47902 9.17818 7.68032 8.43688C7.27551 8.06117 6.64279 8.08476 6.26708 8.48956C5.89138 8.89436 5.91496 9.52708 6.31976 9.90279C7.8959 11.3656 10.1501 11.3656 11.7262 9.90279L11.7858 9.84269L14.904 6.20493L15.0039 6.10765ZM9.733 7.5103C10.1087 7.1055 10.0851 6.47278 9.68032 6.09707C8.10418 4.63422 5.85 4.63422 4.27387 6.09707L4.19496 6.17915L1.09504 9.79393L0.996133 9.89221C-0.415541 11.3582 -0.293821 13.6266 1.14765 14.9645C2.59812 16.3107 5.02889 16.3801 6.5541 14.9645L6.64334 14.8702L7.70071 13.5961L7.77482 13.4946C8.04223 13.0757 7.96212 12.5135 7.56982 12.1879L7.46831 12.1138C7.04947 11.8464 6.48724 11.9265 6.16167 12.3188L5.15604 13.5289L5.06585 13.6063C4.31773 14.1787 3.17009 14.1129 2.5082 13.4986C1.84808 12.8859 1.81388 11.8538 2.5082 11.2094L2.58711 11.1273L5.66504 7.53503C6.47009 6.81236 7.52106 6.82168 8.31976 7.56298C8.72456 7.93869 9.35729 7.9151 9.733 7.5103Z" fill="#747474"/>
</svg>
