<svg width="32" height="32" viewBox="0 0 32 32" fill="none" xmlns="http://www.w3.org/2000/svg">
<rect width="32" height="32" rx="16" fill="white"/>
<path d="M16.2448 13.8184V18.4656H22.8348C22.5454 19.9602 21.677 21.2257 20.3746 22.0766L24.3487 25.0984C26.6641 23.0039 28 19.9276 28 16.273C28 15.4221 27.9221 14.6039 27.7773 13.8185L16.2448 13.8184Z" fill="#4285F4"/>
<path d="M9.3823 18.2842L8.486 18.9566L5.31335 21.3783C7.32822 25.2947 11.4579 28.0002 16.2445 28.0002C19.5506 28.0002 22.3224 26.9311 24.3485 25.0984L20.3744 22.0765C19.2835 22.7965 17.892 23.2329 16.2445 23.2329C13.0608 23.2329 10.3559 21.1275 9.38731 18.2911L9.3823 18.2842Z" fill="#34A853"/>
<path d="M5.31347 10.6221C4.47862 12.2365 4 14.0584 4 16.0002C4 17.942 4.47862 19.7638 5.31347 21.3783C5.31347 21.3891 9.38781 18.2801 9.38781 18.2801C9.14291 17.5601 8.99816 16.7965 8.99816 16.0001C8.99816 15.2036 9.14291 14.44 9.38781 13.72L5.31347 10.6221Z" fill="#FBBC05"/>
<path d="M16.2448 8.77818C18.0482 8.77818 19.6511 9.38907 20.9313 10.5673L24.4378 7.13095C22.3116 5.18916 19.551 4 16.2448 4C11.4581 4 7.32822 6.69454 5.31335 10.6218L9.38757 13.72C10.356 10.8836 13.0611 8.77818 16.2448 8.77818Z" fill="#EA4335"/>
</svg>
