<svg width="16" height="16" viewBox="0 0 16 16" fill="none" xmlns="http://www.w3.org/2000/svg">
    <g clip-path="url(#clip0_2376_481)">
        <path d="M1.20962 13.1043L1.91523 14.3231C2.06186 14.5797 2.27262 14.7813 2.52005 14.9279L5.04009 10.5659H0C0 10.85 0.0733104 11.1341 0.219931 11.3907L1.20962 13.1043Z" fill="#0066DA" />
        <path d="M8 5.43424L5.47995 1.07227C5.23253 1.21889 5.02176 1.42049 4.87514 1.67708L0.219931 9.74122C0.076007 9.99228 0.000191627 10.2766 0 10.566H5.04009L8 5.43424Z" fill="#00AC47" />
        <path d="M13.4799 14.9279C13.7273 14.7813 13.9381 14.5797 14.0847 14.3231L14.3779 13.8191L15.78 11.3907C15.9266 11.1341 15.9999 10.85 15.9999 10.5659H10.9595L12.032 12.6736L13.4799 14.9279Z" fill="#EA4335" />
        <path d="M8.00003 5.4342L10.5201 1.07223C10.2726 0.925605 9.98857 0.852295 9.69533 0.852295H6.30472C6.01148 0.852295 5.7274 0.934769 5.47998 1.07223L8.00003 5.4342Z" fill="#00832D" />
        <path d="M10.9599 10.5659H5.04007L2.52002 14.9279C2.76744 15.0745 3.05152 15.1478 3.34476 15.1478H12.6552C12.9484 15.1478 13.2325 15.0653 13.4799 14.9279L10.9599 10.5659Z" fill="#2684FC" />
        <path d="M13.4525 5.70915L11.1249 1.67708C10.9782 1.42049 10.7675 1.21889 10.52 1.07227L8 5.43424L10.9599 10.566H15.9908C15.9908 10.2819 15.9175 9.99781 15.7709 9.74122L13.4525 5.70915Z" fill="#FFBA00" />
    </g>
    <defs>
        <clipPath id="clip0_2376_481">
            <rect width="16" height="14.2955" fill="white" transform="translate(0 0.852295)" />
        </clipPath>
    </defs>
</svg>