<svg width="24" height="24" viewBox="0 0 24 24" fill="none" xmlns="http://www.w3.org/2000/svg">
<g clip-path="url(#clip0_2903_446)">
<path fill-rule="evenodd" clip-rule="evenodd" d="M12 24C18.627 24 24 18.627 24 12C24 5.373 18.627 0 12 0C5.373 0 0 5.373 0 12C0 18.627 5.373 24 12 24ZM9.09367 7.2026C9.86565 6.43248 10.9116 6 12.002 6C13.075 6.00012 14.1055 6.41891 14.8744 7.16726C15.6433 7.91561 16.0898 8.93445 16.119 10.007L16.117 13.91C16.1098 14.9875 15.6805 16.0192 14.9213 16.7839C14.1621 17.5485 13.1334 17.9851 12.056 18H12.027L11.999 17.999C10.9267 17.9876 9.90157 17.556 9.144 16.797L10.236 15.707C10.7109 16.1834 11.3543 16.4536 12.027 16.459C12.7047 16.4524 13.3526 16.1795 13.8306 15.6992C14.3087 15.2188 14.5786 14.5697 14.582 13.892V10.108C14.582 8.692 13.422 7.54 12.002 7.54C11.3204 7.54 10.6666 7.81036 10.184 8.29178C9.70148 8.77321 9.42959 9.42637 9.428 10.108C9.42959 10.7896 9.70148 11.4428 10.184 11.9242C10.6666 12.4056 11.3204 12.676 12.002 12.676H13.356V14.217H12.002C10.9114 14.217 9.86533 13.7844 9.09331 13.014C8.3213 12.2437 7.88639 11.1986 7.884 10.108C7.88665 9.01757 8.32168 7.97271 9.09367 7.2026Z" fill="#F55036"/>
</g>
<defs>
<clipPath id="clip0_2903_446">
<rect width="24" height="24" fill="white"/>
</clipPath>
</defs>
</svg>
