<svg width="8" height="8" viewBox="0 0 8 8" fill="none" xmlns="http://www.w3.org/2000/svg">
<path fill-rule="evenodd" clip-rule="evenodd" d="M6.5 2.25C6.5 0.991406 5.36696 0 4 0C2.63304 0 1.5 0.991406 1.5 2.25C1.5 2.52614 1.72386 2.75 2 2.75C2.27614 2.75 2.5 2.52614 2.5 2.25C2.5 1.5756 3.15783 1 4 1C4.84217 1 5.5 1.5756 5.5 2.25C5.5 2.9244 4.84217 3.5 4 3.5C3.72386 3.5 3.5 3.72386 3.5 4V4.75L3.50336 4.80831C3.53225 5.05698 3.74358 5.25 4 5.25C4.27614 5.25 4.5 5.02614 4.5 4.75L4.50039 4.45485C5.63277 4.24771 6.5 3.35111 6.5 2.25ZM5 7C5 6.44772 4.55228 6 4 6C3.44772 6 3 6.44772 3 7C3 7.55228 3.44772 8 4 8C4.55228 8 5 7.55228 5 7Z" fill="#747474"/>
</svg>
