<svg width="16" height="16" viewBox="0 0 16 16" fill="none" xmlns="http://www.w3.org/2000/svg">
<path fill-rule="evenodd" clip-rule="evenodd" d="M10 1C10 0.447715 9.55229 0 9 0H1L0.883379 0.00672773C0.38604 0.0644928 0 0.487164 0 1V15L0.00672773 15.1166C0.0644928 15.614 0.487164 16 1 16H9L9.11662 15.9933C9.61396 15.9355 10 15.5128 10 15L9.99327 14.8834C9.93551 14.386 9.51284 14 9 14H1.999V2H9L9.11662 1.99327C9.61396 1.93551 10 1.51284 10 1ZM11.7071 12.7071L11.6129 12.7903C11.2206 13.0953 10.6534 13.0676 10.2929 12.7071L10.2097 12.6129C9.90468 12.2206 9.93241 11.6534 10.2929 11.2929L12.585 9L5 9L4.88338 8.99327C4.38604 8.93551 4 8.51284 4 8C4 7.44772 4.44771 7 5 7L12.585 7L10.2929 4.70711L10.2097 4.6129C9.90468 4.22061 9.93241 3.65338 10.2929 3.29289C10.6834 2.90237 11.3166 2.90237 11.7071 3.29289L15.7071 7.29289L15.7903 7.3871C16.0953 7.77939 16.0676 8.34662 15.7071 8.70711L11.7071 12.7071Z" fill="#747474"/>
</svg>
