<svg width="16" height="16" viewBox="0 0 16 16" fill="none" xmlns="http://www.w3.org/2000/svg">
<path fill-rule="evenodd" clip-rule="evenodd" d="M1 0C0.447715 0 0 0.447715 0 1V11C0 11.5523 0.447715 12 1 12H4.5L7.2 15.6C7.38885 15.8518 7.68524 16 8 16C8.31476 16 8.61115 15.8518 8.8 15.6L11.5 12H15C15.5523 12 16 11.5523 16 11V1C16 0.447715 15.5523 0 15 0H1ZM8 2C9.10457 2 10 2.89543 10 4C10 5.10457 9.10457 6 8 6C6.89543 6 6 5.10457 6 4C6 2.89543 6.89543 2 8 2ZM8 6.5C10.18 6.5 12 7.80002 12 9.5C12 9.75642 11.807 9.96775 11.5583 9.99664L11.5 10H4.5C4.22386 10 4 9.77614 4 9.5C4 7.80002 5.82003 6.5 8 6.5Z" fill="#DBDBDB"/>
</svg>
