<svg width="24" height="24" viewBox="0 0 24 24" fill="none" xmlns="http://www.w3.org/2000/svg">
<g clip-path="url(#clip0_2895_4547)">
<path fill-rule="evenodd" clip-rule="evenodd" d="M22.3437 7.34168C22.4318 8.18288 22.3393 9.0332 22.0724 9.83579C22.926 10.7799 23.4578 11.9706 23.5912 13.2364C23.7246 14.5022 23.4527 15.7776 22.8147 16.8789C22.396 17.6145 21.8249 18.2522 21.1398 18.7491C20.4547 19.2461 19.6712 19.591 18.842 19.7606C18.4508 20.9729 17.6844 22.0296 16.6535 22.778C15.6225 23.5263 14.3804 23.9277 13.1065 23.9241C12.2604 23.9297 11.4228 23.7544 10.6499 23.4099C9.87697 23.0654 9.18662 22.5598 8.62506 21.9268C7.3801 22.1937 6.08252 22.0583 4.91951 21.54C3.75651 21.0217 2.7882 20.1474 2.15428 19.0431C1.72691 18.3131 1.46035 17.5001 1.37244 16.6587C1.28453 15.8173 1.3773 14.9669 1.64453 14.1642C0.790789 13.2197 0.259061 12.0285 0.126013 10.7623C-0.00703468 9.49614 0.265473 8.22042 0.904242 7.1191C1.32299 6.38344 1.89403 5.74571 2.57916 5.24858C3.26428 4.75144 4.04768 4.40637 4.87694 4.23646C5.26864 3.02522 6.03485 1.96965 7.0651 1.22192C8.09535 0.47419 9.33643 0.0729201 10.6094 0.0759578C11.4556 0.0705432 12.2931 0.24593 13.066 0.590379C13.8388 0.934828 14.5292 1.44039 15.0909 2.07324C16.3358 1.8063 17.6334 1.94174 18.7964 2.46003C19.9594 2.97831 20.9277 3.85263 21.5617 4.95687C21.9889 5.68622 22.2562 6.50004 22.3437 7.34168ZM10.2477 21.3306C11.0506 22.0003 11.9688 22.365 13.1552 22.365C15.4804 22.365 17.5741 20.4094 17.5741 17.8935V12.3518C17.5725 12.3401 17.568 12.329 17.5611 12.3195C17.5541 12.3099 17.5449 12.3022 17.5343 12.2971L15.5271 11.1385V17.8319C15.528 17.9689 15.4924 18.1038 15.4239 18.2225C15.3555 18.3413 15.2566 18.4396 15.1376 18.5076L10.3888 21.2501C10.3425 21.2781 10.2954 21.3049 10.2477 21.3306ZM2.97406 15.2692C2.79459 16.2991 2.98313 17.3593 3.50667 18.2641C4.10017 19.2894 5.07617 20.0375 6.22052 20.3441C7.36487 20.6507 8.58413 20.4909 9.61079 19.8997L14.4112 17.1273C14.4207 17.1204 14.4283 17.1113 14.4333 17.1007C14.4383 17.0901 14.4406 17.0784 14.44 17.0667V14.7485L8.64295 18.0962C8.52464 18.1654 8.39002 18.2019 8.25294 18.2019C8.11585 18.2019 7.98123 18.1654 7.86292 18.0962L3.11417 15.3536C3.06678 15.3261 3.02073 15.2979 2.97406 15.2692ZM4.58082 5.93862C3.59992 6.29885 2.77688 6.99246 2.25563 7.89813C1.66521 8.92485 1.50603 10.1438 1.81301 11.2877C2.11999 12.4316 2.86807 13.4071 3.8932 14.0003L8.69263 16.7746C8.70366 16.7794 8.7157 16.7813 8.72767 16.7803C8.73964 16.7792 8.75116 16.7752 8.7612 16.7686L10.7684 15.61L4.97134 12.2623C4.85207 12.1947 4.75306 12.0963 4.68458 11.9775C4.61609 11.8587 4.58061 11.7238 4.58182 11.5866L4.58082 5.93862ZM12.9485 8.38801L18.7456 11.7357C18.8643 11.8036 18.9627 11.9019 19.0308 12.0205C19.099 12.1391 19.1343 12.2737 19.1331 12.4104V18.0604C19.9298 17.7666 20.6263 17.2519 21.1412 16.5767C21.6561 15.9014 21.968 15.0935 22.0404 14.2475C22.1129 13.4014 21.9429 12.5523 21.5503 11.7993C21.1577 11.0464 20.5589 10.4208 19.8237 9.99577L15.0243 7.22343C15.0133 7.21867 15.0012 7.21672 14.9893 7.21776C14.9773 7.2188 14.9658 7.2228 14.9557 7.22939L12.9485 8.38801ZM20.6028 8.64239L20.7439 8.72686C20.8876 7.8902 20.79 7.02992 20.4627 6.24667C20.1353 5.46342 19.5917 4.7896 18.8953 4.30404C18.199 3.81849 17.3788 3.54128 16.5306 3.50485C15.6825 3.46842 14.8416 3.67428 14.1062 4.09834L9.30672 6.8677C9.29725 6.87483 9.28967 6.88417 9.28465 6.89492C9.27962 6.90566 9.27731 6.91746 9.27791 6.92931V9.24754L15.075 5.89887C15.1934 5.82982 15.328 5.79343 15.465 5.79343C15.602 5.79343 15.7366 5.82982 15.855 5.89887L20.6038 8.64239H20.6028ZM6.17964 11.7019L8.18686 12.8605L8.18984 6.16915C8.18904 6.03198 8.2248 5.89708 8.29343 5.77833C8.36207 5.65957 8.4611 5.56124 8.58035 5.49345L13.3291 2.75092C13.3708 2.72508 13.4334 2.6913 13.4702 2.67143C12.8177 2.12788 12.0239 1.78147 11.1817 1.67273C10.3395 1.56399 9.48376 1.69744 8.71464 2.05744C7.94552 2.41745 7.29488 2.98911 6.8389 3.70551C6.38291 4.4219 6.14044 5.25337 6.13989 6.10257V11.6473C6.14133 11.659 6.14573 11.6702 6.15268 11.6797C6.15964 11.6893 6.16892 11.6969 6.17964 11.7019ZM11.8585 9.019L9.27691 10.5095V13.4905L11.8585 14.981L14.441 13.4905V10.5095L11.8595 9.019H11.8585Z" fill="black"/>
</g>
<defs>
<clipPath id="clip0_2895_4547">
<rect width="24" height="24" fill="white"/>
</clipPath>
</defs>
</svg>
