<svg width="17" height="17" viewBox="0 0 17 17" fill="none" xmlns="http://www.w3.org/2000/svg">
<path fill-rule="evenodd" clip-rule="evenodd" d="M15.6129 0.209705C15.2206 -0.0953203 14.6534 -0.0675907 14.2929 0.292893L13.2929 1.29289L13.2097 1.3871C12.9047 1.77939 12.9324 2.34662 13.2929 2.70711L14.2929 3.70711L14.3871 3.7903C14.7794 4.09532 15.3466 4.06759 15.7071 3.70711L16.7071 2.70711L16.7903 2.6129C17.0953 2.22061 17.0676 1.65338 16.7071 1.29289L15.7071 0.292893L15.6129 0.209705ZM12.6129 3.2097C12.2206 2.90468 11.6534 2.93241 11.2929 3.29289L2.29289 12.2929L2.22123 12.3727C2.17641 12.4283 2.13762 12.4887 2.10557 12.5528L1.10557 14.5528L1.06186 14.6521C0.745862 15.4805 1.62072 16.3077 2.44721 15.8944L4.44721 14.8944L4.54043 14.8414C4.60055 14.8028 4.65644 14.7578 4.70711 14.7071L13.7071 5.70711L13.7903 5.6129C14.0953 5.22061 14.0676 4.65338 13.7071 4.29289L12.7071 3.29289L12.6129 3.2097Z" fill="#747474"/>
</svg>
