<svg width="16" height="16" viewBox="0 0 16 16" fill="none" xmlns="http://www.w3.org/2000/svg">
<path fill-rule="evenodd" clip-rule="evenodd" d="M3 0C4.3118 0 5.42695 0.841956 5.83453 2.01495L5.88338 2.00673L6 2H15C15.5523 2 16 2.44772 16 3C16 3.51284 15.614 3.93551 15.1166 3.99327L15 4H6C5.94344 4 5.88799 3.99531 5.83399 3.98628C5.42695 5.15804 4.3118 6 3 6C1.34315 6 0 4.65685 0 3C0 1.34315 1.34315 0 3 0ZM16 13C16 11.3431 14.6569 10 13 10C11.6882 10 10.5731 10.842 10.166 12.0137C10.112 12.0047 10.0566 12 10 12H1L0.883379 12.0067C0.38604 12.0645 0 12.4872 0 13C0 13.5523 0.447715 14 1 14H10L10.1166 13.9933L10.1655 13.985C10.5731 15.158 11.6882 16 13 16C14.6569 16 16 14.6569 16 13ZM12 13C12 12.4477 12.4477 12 13 12C13.5523 12 14 12.4477 14 13C14 13.5523 13.5523 14 13 14C12.4477 14 12 13.5523 12 13ZM2 3C2 2.44772 2.44772 2 3 2C3.55228 2 4 2.44772 4 3C4 3.55228 3.55228 4 3 4C2.44772 4 2 3.55228 2 3Z" fill="#747474"/>
</svg>
