<svg width="12" height="12" viewBox="0 0 12 12" fill="none" xmlns="http://www.w3.org/2000/svg">
<path fill-rule="evenodd" clip-rule="evenodd" d="M11.2528 4.58061C12.3116 3.48111 12.2203 1.77979 11.1392 0.776392C10.0513 -0.233273 8.22827 -0.285298 7.08437 0.776392L7.01743 0.847142L6.2244 1.80271L6.16882 1.87884C5.96827 2.19297 6.02835 2.61464 6.32258 2.85882L6.3987 2.91441C6.71283 3.11496 7.1345 3.05488 7.37868 2.76065L8.13216 1.85233L8.20055 1.79507C8.76164 1.36572 9.62237 1.41509 10.1188 1.87583C10.6139 2.33533 10.6395 3.10941 10.1188 3.59272L10.0596 3.65428L7.75115 6.3485C7.14737 6.8905 6.35914 6.88351 5.76011 6.32754C5.45651 6.04576 4.98197 6.06345 4.70019 6.36705C4.41841 6.67065 4.4361 7.14519 4.7397 7.42697C5.9218 8.52411 7.61243 8.52411 8.79454 7.42697L8.83922 7.38189L11.1779 4.65358L11.2528 4.58061ZM7.29962 5.6326C7.5814 5.329 7.56371 4.85446 7.26011 4.57268C6.07801 3.47554 4.38738 3.47554 3.20528 4.57268L3.1461 4.63424L0.821158 7.34533L0.746977 7.41904C-0.311778 8.51854 -0.220487 10.2199 0.860613 11.2233C1.94847 12.2329 3.77154 12.2849 4.91545 11.2233L4.98238 11.1525L5.77541 10.1969L5.831 10.1208C6.03155 9.80668 5.97147 9.38501 5.67724 9.14083L5.60111 9.08525C5.28698 8.88469 4.86531 8.94477 4.62113 9.239L3.86691 10.1466L3.79927 10.2046C3.23818 10.6339 2.37744 10.5846 1.88103 10.1238C1.38593 9.66432 1.36029 8.89024 1.88103 8.40693L1.94021 8.34537L4.24866 5.65115C4.85245 5.10915 5.64067 5.11614 6.2397 5.67212C6.5433 5.95389 7.01785 5.9362 7.29962 5.6326Z" fill="#DBDBDB"/>
</svg>
