<svg width="16" height="16" viewBox="0 0 16 16" fill="none" xmlns="http://www.w3.org/2000/svg">
<path fill-rule="evenodd" clip-rule="evenodd" d="M15.0039 6.10772C16.4156 4.64172 16.2939 2.37329 14.8524 1.03543C13.402 -0.310791 10.9712 -0.380158 9.44598 1.03543L9.35674 1.12976L8.29937 2.40386L8.22526 2.50536C7.95785 2.9242 8.03796 3.48643 8.43026 3.812L8.53177 3.88611C8.95061 4.15352 9.51283 4.07341 9.83841 3.68111L10.843 2.47001L10.9342 2.39367C11.6823 1.8212 12.83 1.88703 13.4919 2.50134C14.152 3.11402 14.1862 4.14612 13.4919 4.79053L13.413 4.87261L10.335 8.46491C9.52999 9.18757 8.47902 9.17825 7.68032 8.43695C7.27551 8.06125 6.64279 8.08483 6.26708 8.48963C5.89138 8.89443 5.91496 9.52716 6.31976 9.90287C7.8959 11.3657 10.1501 11.3657 11.7262 9.90287L11.7858 9.84276L14.904 6.20501L15.0039 6.10772ZM9.733 7.51038C10.1087 7.10558 10.0851 6.47285 9.68032 6.09715C8.10418 4.63429 5.85 4.63429 4.27387 6.09715L4.19496 6.17923L1.09504 9.79401L0.996133 9.89229C-0.415541 11.3583 -0.293821 13.6267 1.14765 14.9646C2.59812 16.3108 5.02889 16.3802 6.5541 14.9646L6.64334 14.8703L7.70071 13.5962L7.77482 13.4947C8.04223 13.0758 7.96212 12.5136 7.56982 12.188L7.46831 12.1139C7.04947 11.8465 6.48724 11.9266 6.16167 12.3189L5.15604 13.529L5.06585 13.6063C4.31773 14.1788 3.17009 14.113 2.5082 13.4987C1.84808 12.886 1.81388 11.8539 2.5082 11.2095L2.58711 11.1274L5.66504 7.5351C6.47009 6.81244 7.52106 6.82176 8.31976 7.56306C8.72456 7.93877 9.35729 7.91518 9.733 7.51038Z" fill="#747474"/>
</svg>
