<svg width="16" height="16" viewBox="0 0 16 16" fill="none" xmlns="http://www.w3.org/2000/svg">
<path d="M6 7C6 6.44772 6.44772 6 7 6H9C9.55229 6 10 6.44772 10 7V9C10 9.55229 9.55229 10 9 10H7C6.44772 10 6 9.55229 6 9V7Z" fill="#DBDBDB"/>
<path fill-rule="evenodd" clip-rule="evenodd" d="M16 8C16 3.58172 12.4183 0 8 0C3.58172 0 0 3.58172 0 8C0 12.4183 3.58172 16 8 16C12.4183 16 16 12.4183 16 8ZM4 6C4 4.89543 4.89543 4 6 4H10C11.1046 4 12 4.89543 12 6V10C12 11.1046 11.1046 12 10 12H6C4.89543 12 4 11.1046 4 10V6Z" fill="#DBDBDB"/>
</svg>
