<svg width="4" height="16" viewBox="0 0 4 16" fill="none" xmlns="http://www.w3.org/2000/svg">
<path fill-rule="evenodd" clip-rule="evenodd" d="M4 2C4 3.10457 3.10457 4 2 4C0.895431 4 4.76254e-07 3.10457 5.24537e-07 2C5.72819e-07 0.89543 0.895431 -4.82823e-08 2 0C3.10457 4.82823e-08 4 0.89543 4 2ZM4 8C4 9.10457 3.10457 10 2 10C0.895431 10 2.13986e-07 9.10457 2.62268e-07 8C3.10551e-07 6.89543 0.895431 6 2 6C3.10457 6 4 6.89543 4 8ZM2 16C3.10457 16 4 15.1046 4 14C4 12.8954 3.10457 12 2 12C0.895431 12 4.82823e-08 12.8954 0 14C-4.82823e-08 15.1046 0.89543 16 2 16Z" fill="#747474"/>
</svg>
