<svg width="14" height="16" viewBox="0 0 14 16" fill="none" xmlns="http://www.w3.org/2000/svg">
<path fill-rule="evenodd" clip-rule="evenodd" d="M11.3333 0C11.465 0 11.5913 0.0519229 11.6849 0.144499L13.8516 2.28736C13.9466 2.38128 14 2.50929 14 2.64286V15.5C14 15.7761 13.7761 16 13.5 16H0.5C0.223858 16 0 15.7761 0 15.5V0.5C0 0.223858 0.223858 0 0.5 0H11.3333ZM10 1H1V15H13V4H10.5C10.2239 4 10 3.77614 10 3.5V1ZM7 11.25C7 10.8358 6.66421 10.5 6.25 10.5H3.75C3.33579 10.5 3 10.8358 3 11.25C3 11.6642 3.33579 12 3.75 12H6.25C6.66421 12 7 11.6642 7 11.25ZM10.25 7.75C10.6642 7.75 11 8.08579 11 8.5C11 8.91421 10.6642 9.25 10.25 9.25H3.75C3.33579 9.25 3 8.91421 3 8.5C3 8.08579 3.33579 7.75 3.75 7.75H10.25ZM11 5.75C11 5.33579 10.6642 5 10.25 5H3.75C3.33579 5 3 5.33579 3 5.75C3 6.16421 3.33579 6.5 3.75 6.5H10.25C10.6642 6.5 11 6.16421 11 5.75Z" fill="#747474"/>
</svg>
